HIERARCHY
ROOT Hips
{
    OFFSET 0.000000 0.000000 0.000000
    CHANNELS 6 Xposition Yposition Zposition Zrotation Xrotation Yrotation
    JOINT Spine
    {
        OFFSET 0.000001 7.292995 0.000000
        CHANNELS 3 Zrotation Xrotation Yrotation
        JOINT Spine1
        {
            OFFSET -0.000000 20.255388 0.000001
            CHANNELS 3 Zrotation Xrotation Yrotation
            JOINT Neck
            {
                OFFSET 0.000001 20.786594 0.000000
                CHANNELS 3 Zrotation Xrotation Yrotation
                JOINT Head
                {
                    OFFSET 0.000003 12.530788 1.776080
                    CHANNELS 3 Zrotation Xrotation Yrotation
                    End Site
                    {
                        OFFSET 0.000000 17.760757 0.000000
                    }
                }
            }
            JOINT LeftShoulder
            {
                OFFSET 3.550532 15.465697 -0.908801
                CHANNELS 3 Zrotation Xrotation Yrotation
                JOINT LeftArm
                {
                    OFFSET 12.513301 -0.000005 0.000001
                    CHANNELS 3 Zrotation Xrotation Yrotation
                    JOINT LeftForeArm
                    {
                        OFFSET 24.225992 0.000005 0.000000
                        CHANNELS 3 Zrotation Xrotation Yrotation
                        JOINT LeftHand
                        {
                            OFFSET 20.711395 -0.000004 0.000000
                            CHANNELS 3 Zrotation Xrotation Yrotation
                            JOINT LeftHandThumb1
                            {
                                OFFSET 2.121964 -2.411326 3.375861
                                CHANNELS 3 Zrotation Xrotation Yrotation
                                JOINT LeftHandThumb2
                                {
                                    OFFSET 2.803212 -0.000001 -0.000002
                                    CHANNELS 3 Zrotation Xrotation Yrotation
                                    JOINT LeftHandThumb3
                                    {
                                        OFFSET 2.395929 0.000000 0.000000
                                        CHANNELS 3 Zrotation Xrotation Yrotation
                                        End Site
                                        {
                                            OFFSET 2.127676 0.000000 0.000000
                                        }
                                    }
                                }
                            }
                            JOINT LeftHandIndex1
                            {
                                OFFSET 8.680776 0.000004 3.375861
                                CHANNELS 3 Zrotation Xrotation Yrotation
                                JOINT LeftHandIndex2
                                {
                                    OFFSET 4.218180 -0.000002 0.000001
                                    CHANNELS 3 Zrotation Xrotation Yrotation
                                    JOINT LeftHandIndex3
                                    {
                                        OFFSET 2.109090 0.000001 -0.000000
                                        CHANNELS 3 Zrotation Xrotation Yrotation
                                        End Site
                                        {
                                            OFFSET 1.872952 0.000000 0.000000
                                        }
                                    }
                                }
                            }
                            JOINT LeftHandMiddle1
                            {
                                OFFSET 8.680775 0.000001 1.118862
                                CHANNELS 3 Zrotation Xrotation Yrotation
                                JOINT LeftHandMiddle2
                                {
                                    OFFSET 4.640000 0.000002 -0.000000
                                    CHANNELS 3 Zrotation Xrotation Yrotation
                                    JOINT LeftHandMiddle3
                                    {
                                        OFFSET 2.530906 0.000005 0.000000
                                        CHANNELS 3 Zrotation Xrotation Yrotation
                                        End Site
                                        {
                                            OFFSET 2.247544 0.000000 0.000000
                                        }
                                    }
                                }
                            }
                            JOINT LeftHandRing1
                            {
                                OFFSET 8.198514 -0.000004 -1.118859
                                CHANNELS 3 Zrotation Xrotation Yrotation
                                JOINT LeftHandRing2
                                {
                                    OFFSET 4.218182 -0.000003 -0.000001
                                    CHANNELS 3 Zrotation Xrotation Yrotation
                                    JOINT LeftHandRing3
                                    {
                                        OFFSET 2.109086 0.000004 0.000001
                                        CHANNELS 3 Zrotation Xrotation Yrotation
                                        End Site
                                        {
                                            OFFSET 1.872952 0.000000 0.000000
                                        }
                                    }
                                }
                            }
                            JOINT LeftHandPinky1
                            {
                                OFFSET 7.716242 0.000005 -3.375859
                                CHANNELS 3 Zrotation Xrotation Yrotation
                                JOINT LeftHandPinky2
                                {
                                    OFFSET 3.374535 0.000004 0.000002
                                    CHANNELS 3 Zrotation Xrotation Yrotation
                                    JOINT LeftHandPinky3
                                    {
                                        OFFSET 1.687275 0.000002 -0.000001
                                        CHANNELS 3 Zrotation Xrotation Yrotation
                                        End Site
                                        {
                                            OFFSET 1.498360 0.000000 0.000000
                                        }
                                    }
                                }
                            }
                        }
                    }
                }
            }
            JOINT RightShoulder
            {
                OFFSET -3.550531 15.465694 -0.908802
                CHANNELS 3 Zrotation Xrotation Yrotation
                JOINT RightArm
                {
                    OFFSET -12.513298 -0.000004 0.000001
                    CHANNELS 3 Zrotation Xrotation Yrotation
                    JOINT RightForeArm
                    {
                        OFFSET -24.225996 -0.000002 -0.000000
                        CHANNELS 3 Zrotation Xrotation Yrotation
                        JOINT RightHand
                        {
                            OFFSET -20.711401 0.000005 0.000001
                            CHANNELS 3 Zrotation Xrotation Yrotation
                            JOINT RightHandThumb1
                            {
                                OFFSET -2.121970 -2.411334 3.375861
                                CHANNELS 3 Zrotation Xrotation Yrotation
                                JOINT RightHandThumb2
                                {
                                    OFFSET -2.803210 0.000003 -0.000004
                                    CHANNELS 3 Zrotation Xrotation Yrotation
                                    JOINT RightHandThumb3
                                    {
                                        OFFSET -2.395930 -0.000001 0.000002
                                        CHANNELS 3 Zrotation Xrotation Yrotation
                                        End Site
                                        {
                                            OFFSET -2.127676 0.000000 0.000000
                                        }
                                    }
                                }
                            }
                            JOINT RightHandIndex1
                            {
                                OFFSET -8.680779 0.000001 3.375860
                                CHANNELS 3 Zrotation Xrotation Yrotation
                                JOINT RightHandIndex2
                                {
                                    OFFSET -4.218180 0.000000 -0.000000
                                    CHANNELS 3 Zrotation Xrotation Yrotation
                                    JOINT RightHandIndex3
                                    {
                                        OFFSET -2.109090 0.000001 -0.000000
                                        CHANNELS 3 Zrotation Xrotation Yrotation
                                        End Site
                                        {
                                            OFFSET -1.872952 0.000000 0.000000
                                        }
                                    }
                                }
                            }
                            JOINT RightHandMiddle1
                            {
                                OFFSET -8.680780 0.000001 1.118860
                                CHANNELS 3 Zrotation Xrotation Yrotation
                                JOINT RightHandMiddle2
                                {
                                    OFFSET -4.640000 -0.000002 0.000001
                                    CHANNELS 3 Zrotation Xrotation Yrotation
                                    JOINT RightHandMiddle3
                                    {
                                        OFFSET -2.530910 0.000001 -0.000000
                                        CHANNELS 3 Zrotation Xrotation Yrotation
                                        End Site
                                        {
                                            OFFSET -2.247544 0.000000 0.000000
                                        }
                                    }
                                }
                            }
                            JOINT RightHandRing1
                            {
                                OFFSET -8.198519 0.000005 -1.118860
                                CHANNELS 3 Zrotation Xrotation Yrotation
                                JOINT RightHandRing2
                                {
                                    OFFSET -4.218180 -0.000006 0.000000
                                    CHANNELS 3 Zrotation Xrotation Yrotation
                                    JOINT RightHandRing3
                                    {
                                        OFFSET -2.109090 0.000001 -0.000000
                                        CHANNELS 3 Zrotation Xrotation Yrotation
                                        End Site
                                        {
                                            OFFSET -1.872952 0.000000 0.000000
                                        }
                                    }
                                }
                            }
                            JOINT RightHandPinky1
                            {
                                OFFSET -7.716248 -0.000002 -3.375859
                                CHANNELS 3 Zrotation Xrotation Yrotation
                                JOINT RightHandPinky2
                                {
                                    OFFSET -3.374540 0.000000 0.000000
                                    CHANNELS 3 Zrotation Xrotation Yrotation
                                    JOINT RightHandPinky3
                                    {
                                        OFFSET -1.687270 0.000004 0.000001
                                        CHANNELS 3 Zrotation Xrotation Yrotation
                                        End Site
                                        {
                                            OFFSET -1.498360 0.000000 0.000000
                                        }
                                    }
                                }
                            }
                        }
                    }
                }
            }
        }
    }
    JOINT LeftUpLeg
    {
        OFFSET 8.880376 -0.000000 -0.000000
        CHANNELS 3 Zrotation Xrotation Yrotation
        JOINT LeftLeg
        {
            OFFSET -0.000001 -40.387405 -0.000001
            CHANNELS 3 Zrotation Xrotation Yrotation
            JOINT LeftFoot
            {
                OFFSET -0.000001 -36.911297 -0.000001
                CHANNELS 3 Zrotation Xrotation Yrotation
                JOINT LeftToeBase
                {
                    OFFSET -0.000002 -5.772240 13.320604
                    CHANNELS 3 Zrotation Xrotation Yrotation
                    End Site
                    {
                        OFFSET 0.000000 0.000000 3.552151
                    }
                }
            }
        }
    }
    JOINT RightUpLeg
    {
        OFFSET -8.880376 0.000000 0.000000
        CHANNELS 3 Zrotation Xrotation Yrotation
        JOINT RightLeg
        {
            OFFSET -0.000001 -40.387390 0.000000
            CHANNELS 3 Zrotation Xrotation Yrotation
            JOINT RightFoot
            {
                OFFSET 0.000002 -36.911297 -0.000001
                CHANNELS 3 Zrotation Xrotation Yrotation
                JOINT RightToeBase
                {
                    OFFSET 0.000001 -5.772238 13.320600
                    CHANNELS 3 Zrotation Xrotation Yrotation
                    End Site
                    {
                        OFFSET 0.000000 0.000000 3.552151
                    }
                }
            }
        }
    }
}
MOTION
Frames: 4
Frame Time: 0.013889
70.055084    79.244637    43.897583    1.131518    6.931600    35.474022    -2.122356    -20.970325    -5.911931    2.519182    14.504648    -5.974562    9.089913    -2.551610    10.082537    0.142857    1.294887    9.570880    3.095791    2.455478    -6.581489    9.571171    49.133560    -80.531281    -29.145168    -18.314747    -60.597588    -3.219853    -4.462056    2.089042    29.631411    35.579605    -43.113735    -10.861977    0.450802    23.313358    -0.000000    0.000000    -0.000000    5.063370    17.934231    0.684633    4.816746    -0.000003    0.000003    4.816748    -0.000000    -0.000002    3.279683    8.985503    0.610952    3.239386    0.000007    -0.000010    3.239392    0.000000    0.000001    2.481231    -8.991695    -1.979546    2.450710    -0.000003    -0.000002    2.450712    -0.000000    -0.000000    1.747512    -17.992113    -4.195226    1.662036    0.000000    0.000009    1.662027    0.000003    -0.000002    1.150237    4.626614    3.060683    73.957550    13.467991    -9.600181    2.141949    -12.999596    9.440201    33.566734    -4.201992    -31.194937    -39.938259    24.780611    52.647881    14.068677    -0.931056    -23.299923    -0.000000    0.000000    -0.000000    18.691046    17.107481    13.317880    17.835541    -0.000001    0.000004    17.835531    -0.000002    -0.000003    18.655838    8.534285    6.632245    18.441771    -0.000003    0.000004    18.441771    -0.000002    0.000000    18.961952    -8.518970    2.157626    18.744884    0.000000    -0.000000    18.744892    -0.000003    0.000004    19.952572    -16.983480    4.540902    19.048000    -0.000006    0.000004    19.047998    -0.000003    0.000001    -2.668984    -28.416294    24.438429    0.000001    30.868610    -0.000003    6.961829    -2.548772    16.896030    -0.000000    0.182346    0.000007    -7.251880    7.505844    -17.997757    -0.000001    23.102779    0.000001    3.313100    -23.767414    -5.058846    0.000001    -6.407300    -0.000001    
69.317688    79.454132    43.553261    0.647109    6.834795    35.554115    -2.055343    -21.093103    -5.694742    2.449662    14.472733    -5.756126    9.090241    -2.527658    9.601795    0.376082    1.381543    9.092065    3.166734    2.414397    -6.422843    9.902725    48.837173    -80.273285    -29.199007    -18.147551    -60.868023    -3.765841    -4.807646    1.878633    29.828362    35.429256    -43.226543    -10.938352    0.417880    23.313936    -0.000000    0.000000    -0.000000    4.364837    17.951109    -0.019023    4.151968    -0.000003    0.000000    4.151961    -0.000000    -0.000003    2.830761    8.989205    0.221650    2.795953    0.000000    0.000002    2.795950    -0.000007    -0.000000    2.144327    -8.993796    -2.116452    2.117946    -0.000007    0.000010    2.117944    0.000003    -0.000006    1.514020    -17.994070    -4.435840    1.439942    0.000003    -0.000001    1.439938    -0.000000    -0.000000    0.992533    4.611140    3.166294    73.721962    13.527350    -9.619912    2.213755    -13.184591    9.619138    34.145088    -4.705163    -31.024008    -39.760117    24.848633    52.901882    14.189153    -0.982931    -23.297909    -0.000000    0.000000    -0.000000    18.183681    17.155079    15.328890    17.348349    0.000001    0.000003    17.348349    -0.000001    0.000000    18.894623    8.522371    7.527608    18.678209    -0.000001    0.000000    18.678213    0.000003    -0.000001    19.566048    -8.488104    2.241889    19.343143    0.000002    0.000003    19.343142    -0.000003    0.000004    20.950281    -16.879833    4.821337    20.008072    0.000002    0.000003    20.008072    0.000000    -0.000000    -2.205851    -28.527294    24.133539    -0.000000    29.521078    -0.000000    6.416053    -1.521536    16.854553    0.000001    0.561798    -0.000004    -6.309680    7.276505    -17.710402    -0.000003    22.030977    0.000004    3.212639    -23.497133    -5.331431    0.000001    -5.837320    -0.000001    
68.577225    79.670731    43.223110    0.157164    6.708752    35.603935    -1.988072    -21.198538    -5.483378    2.395264    14.434879    -5.547519    9.111129    -2.463146    9.127847    0.657549    1.511703    8.622338    3.240817    2.387481    -6.271801    10.201344    48.565342    -79.964951    -29.386774    -18.051929    -61.178505    -4.404254    -5.282545    1.705508    30.048212    35.258938    -43.392300    -11.003138    0.389958    23.314396    -0.000000    0.000000    -0.000000    3.565986    17.967348    -0.616452    3.391880    -0.000007    0.000004    3.391881    -0.000003    0.000000    2.311904    8.992798    -0.119141    2.283462    -0.000007    0.000000    2.283474    0.000000    0.000000    1.750806    -8.995865    -2.195109    1.729271    0.000003    0.000000    1.729261    0.000007    -0.000009    1.235519    -17.996035    -4.556130    1.175055    -0.000003    -0.000006    1.175061    -0.000003    0.000003    0.943994    4.580756    3.257071    73.357323    13.741117    -9.585495    2.258645    -13.376830    9.674748    34.776871    -5.057105    -30.777117    -39.716755    24.797049    53.119278    14.252193    -1.010071    -23.296804    -0.000000    0.000000    -0.000000    17.713139    17.198084    17.137403    16.896746    -0.000001    0.000000    16.896740    -0.000000    0.000007    19.110291    8.511486    8.330454    18.891790    -0.000001    -0.000003    18.891790    -0.000001    -0.000003    20.117468    -8.459106    2.348870    19.889313    0.000001    -0.000004    19.889315    0.000001    0.000003    21.862507    -16.780724    5.136901    20.886837    0.000000    -0.000000    20.886845    0.000004    0.000001    -1.737801    -28.559212    23.769962    0.000002    28.053221    -0.000006    5.816448    -0.414368    16.922960    0.000001    0.904349    -0.000005    -5.374140    7.023874    -17.341795    -0.000001    21.045811    0.000001    3.267480    -23.093796    -5.547504    0.000000    -5.333633    -0.000000    
67.580574    79.964951    42.785374    -0.492685    6.472959    35.691490    -1.884942    -21.308067    -5.174969    2.295317    14.416629    -5.240455    9.198447    -2.369794    8.464294    1.115941    1.674144    7.958831    3.286406    2.315886    -6.096443    10.570184    48.161495    -79.504372    -29.430893    -17.898998    -61.420506    -5.561358    -5.742610    1.379637    30.277454    35.078056    -43.602776    -11.128348    0.336013    23.315182    -0.000000    0.000000    -0.000000    2.423877    17.984886    -1.282827    2.305390    0.000007    -0.000000    2.305377    -0.000004    -0.000009    1.431697    8.997237    -0.490951    1.414078    0.000003    0.000001    1.414084    0.000003    -0.000004    0.980505    -8.998719    -2.128352    0.968426    -0.000003    0.000003    0.968435    -0.000000    -0.000003    0.549679    -17.999195    -4.393593    0.522785    0.000007    -0.000004    0.522778    0.000000    0.000004    1.021044    4.551035    3.367164    72.779839    14.172304    -9.459949    2.275800    -13.550941    9.626310    35.417007    -5.365406    -30.394882    -39.863930    24.497995    53.447372    14.231787    -1.001289    -23.297174    -0.000000    0.000000    -0.000000    17.083166    17.253901    19.274717    16.292475    -0.000001    0.000000    16.292475    -0.000000    0.000000    19.330524    8.500244    9.273259    19.109915    0.000003    0.000003    19.109915    -0.000001    -0.000003    20.752703    -8.424747    2.519344    20.518625    0.000002    -0.000007    20.518633    0.000001    0.000003    22.941372    -16.658195    5.601719    21.927343    -0.000001    -0.000003    21.927349    0.000007    0.000002    -1.070285    -28.501112    23.319855    -0.000003    25.982283    0.000002    4.996865    1.151878    17.027241    -0.000000    1.289098    0.000003    -4.132921    6.686634    -16.946285    0.000001    19.863815    -0.000000    3.463445    -22.437309    -5.743667    -0.000000    -4.768952    0.000001    
